# xmcd CD database file
#
# Track frame offsets:
#	150
#	19527
#	35185
#	52225
#	73082
#	100752
#	123787
#	143742
#	167070
#	187262
#	213652
#	249845
#	278005
#	294232
#	310685
#
# Disc length: 4724 seconds
#
# Revision: 1
# Processed by: cddbd v1.5.1PL0 Copyright (c) Steve Scherf et al.
# Submitted via: CDex 1.51
#
DISCID=dc12720f
DTITLE=John Williams baritone band - Baritone band
DYEAR=1997
DGENRE=Jazz
TTITLE0=Walkinn´shoes
TTITLE1=Short stop
TTITLE2=Echoes of harlem
TTITLE3=Round trip
TTITLE4=Waltz for cp
TTITLE5=E´s little blues
TTITLE6=Rockin´in rhythm
TTITLE7=October sun
TTITLE8=Trouble in mind
TTITLE9=Bariphonology
TTITLE10=Prima vera
TTITLE11=Funkallero
TTITLE12=Desert shepherdess
TTITLE13=Four brothers
TTITLE14=Moanin´
EXTD=YEAR: 1997
EXTT0=
EXTT1=
EXTT2=
EXTT3=
EXTT4=
EXTT5=
EXTT6=
EXTT7=
EXTT8=
EXTT9=
EXTT10=
EXTT11=
EXTT12=
EXTT13=
EXTT14=
PLAYORDER=
